:SAMPLES-PER-SECOND 30
:FULLY-SPECIFIED
:DEGREES
503
root  -19.2011 38.8872 2.12507 9.12897 74.2104 12.3453
RightUpLeg  -10.217 1.30928 -9.22309
RightLeg  62.0536 3.0491 5.75414
RightFoot  4.42606 -1.41054 10.3681
RightToes  2.96859e-009 0 -3.6325e-017
Spine  8.80143 -0.32039 -3.14652
Spine1  5.33985 -0.708353 -3.85222
HEad  -7.40673 12.1231 -4.71063
LeftShoulder1  -0.0860136 3.73997 -30.2816
LeftArm  7.73097 15.1637 -42.4599
LeftForeArm  18.2883 -24.6899 -4.18443
LeftHand  -0.0328468 1.41894 0.759876
RightShoulder  -0.594496 -5.3207 25.9821
RightArm  19.2154 -6.42435 47.209
RightForeArm  -0.888897 21.9137 4.93651
RightHand  -0.510317 3.00724 -7.29406
LeftUpLeg  -7.03851 2.23859 -11.8839
LeftLeg  18.7135 5.01661 0.904424
LeftFoot  -9.31128 -0.148212 11.5067
LeftToes  3.24686e-010 -7.02549e-012 1.39809e-011
504
root  -18.0925 39.0394 2.53445 7.84198 76.6441 11.4006
RightUpLeg  -13.6822 3.42917 -8.63209
RightLeg  59.3301 1.14194 1.62986
RightFoot  2.69622 -0.976462 8.06868
RightToes  2.96859e-009 0 -3.6325e-017
Spine  9.00189 -0.871126 -2.92101
Spine1  4.96244 -1.32831 -3.11888
HEad  -6.90556 11.2173 -4.24777
LeftShoulder1  -0.0275781 3.58062 -29.6572
LeftArm  6.98283 13.976 -42.5511
LeftForeArm  20.4443 -28.5905 -5.06966
LeftHand  -0.0361319 1.30939 0.846763
RightShoulder  -0.621476 -5.41023 25.8816
RightArm  17.2247 -5.9507 46.3832
RightForeArm  0.0793522 24.8016 5.28041
RightHand  -0.516559 3.25332 -7.17408
LeftUpLeg  -3.7068 2.76352 -10.8547
LeftLeg  17.3297 2.42671 0.160827
LeftFoot  -10.2421 -0.0490048 11.5406
LeftToes  3.24686e-010 -7.02549e-012 1.39809e-011
505
root  -17.002 39.1036 2.90802 6.73962 79.2313 10.6364
RightUpLeg  -16.3752 4.5415 -8.57023
RightLeg  54.1355 0.243856 -0.0370675
RightFoot  1.3174 -0.6725 6.14093
RightToes  2.96859e-009 0 -3.6325e-017
Spine  9.51377 -1.47098 -2.66273
Spine1  4.32507 -2.00666 -2.37342
HEad  -6.5988 10.2605 -3.6183
LeftShoulder1  0.0570406 3.34368 -29.4301
LeftArm  6.26964 12.6508 -42.3796
LeftForeArm  21.9943 -31.902 -5.76839
LeftHand  -0.0563835 0.650321 1.28804
RightShoulder  -0.614598 -5.41055 25.5079
RightArm  14.6575 -5.84915 45.8388
RightForeArm  2.46041 27.5227 5.80665
RightHand  -0.511373 2.88668 -7.39123
LeftUpLeg  -0.745439 3.3899 -9.83571
LeftLeg  16.536 -0.480125 -0.406685
LeftFoot  -11.4099 0.0759794 11.8262
LeftToes  3.24686e-010 -7.02549e-012 1.39809e-011
506
root  -15.8686 39.0757 3.29533 7.09033 81.0819 11.3619
RightUpLeg  -18.1891 5.58125 -8.96824
RightLeg  46.581 0.44625 0.149976
RightFoot  -0.34546 -0.581179 6.04933
RightToes  2.96859e-009 0 -3.6325e-017
Spine  9.57373 -1.77767 -2.67583
Spine1  4.40313 -2.31567 -1.9495
HEad  -6.81114 9.20789 -3.57223
LeftShoulder1  0.0483996 3.36685 -29.3793
LeftArm  6.37274 10.4292 -42.0773
LeftForeArm  21.8937 -34.0525 -6.31771
LeftHand  -0.10065 0.611305 2.39281
RightShoulder  -0.605781 -5.38401 25.489
RightArm  12.7723 -5.48805 45.3321
RightForeArm  3.60223 29.4831 6.21616
RightHand  -0.528781 3.23483 -7.34745
LeftUpLeg  1.87072 3.94701 -9.1328
LeftLeg  16.5315 -2.66267 -0.66429
LeftFoot  -12.8416 0.23483 11.9845
LeftToes  3.24686e-010 -7.02549e-012 1.39809e-011
507
root  -14.6977 38.996 3.65905 8.05414 82.4807 12.8083
RightUpLeg  -18.9268 6.15613 -9.43186
RightLeg  36.7403 1.6916 1.10526
RightFoot  -2.23446 -0.625848 7.64099
RightToes  2.96859e-009 0 -3.6325e-017
Spine  9.9183 -1.91891 -2.19765
Spine1  4.05731 -2.27333 -2.0036
HEad  -6.67788 8.43535 -3.39398
LeftShoulder1  0.134366 3.12152 -28.9902
LeftArm  5.6767 8.69643 -42.215
LeftForeArm  22.2009 -35.2466 -6.61411
LeftHand  -0.0780933 0.976592 1.94429
RightShoulder  -0.614414 -5.41733 25.3779
RightArm  11.4464 -5.73289 45.0161
RightForeArm  4.08473 30.8675 6.53329
RightHand  -0.575839 3.62417 -7.66282
LeftUpLeg  4.79224 4.44866 -8.47133
LeftLeg  16.0698 -4.43642 -0.85148
LeftFoot  -14.282 0.397978 12.0933
LeftToes  3.24686e-010 -7.02549e-012 1.39809e-011
508
root  -13.4742 38.8698 4.0088 9.5368 83.2678 14.4395
RightUpLeg  -19.1605 5.84154 -9.71966
RightLeg  25.3937 2.53808 1.19003
RightFoot  -3.0256 -0.655059 8.70227
RightToes  2.96859e-009 0 -3.6325e-017
Spine  9.7363 -1.96476 -1.8694
Spine1  4.05596 -2.17061 -1.77292
HEad  -6.70103 7.85938 -3.01097
LeftShoulder1  0.106353 3.20249 -29.1618
LeftArm  4.82784 6.95632 -42.0412
LeftForeArm  22.6189 -35.4646 -6.64836
LeftHand  -0.0864995 0.448072 1.99613
RightShoulder  -0.574947 -5.30829 25.1053
RightArm  10.8313 -5.77715 45.1129
RightForeArm  4.31377 31.3063 6.63237
RightHand  -0.560486 3.55982 -7.51388
LeftUpLeg  7.42091 5.01058 -7.75467
LeftLeg  15.6097 -5.72247 -1.12349
LeftFoot  -15.7649 0.575073 12.3661
LeftToes  3.24686e-010 -7.02549e-012 1.39809e-011
509
root  -12.1908 38.7225 4.32758 12.9706 83.9194 17.8344
RightUpLeg  -18.8375 2.07578 -9.03094
RightLeg  13.4939 4.24715 0.469213
RightFoot  -3.32691 -0.684676 9.41881
RightToes  2.96859e-009 0 -3.6325e-017
Spine  9.09196 -2.10901 -1.13217
Spine1  4.55075 -2.05114 -2.01375
HEad  -7.30228 7.17685 -3.01968
LeftShoulder1  0.100926 3.21777 -29.0983
LeftArm  3.21365 5.95329 -42.1404
LeftForeArm  23.1613 -35.2326 -6.55375
LeftHand  -0.0893757 0.392899 2.06019
RightShoulder  -0.612857 -5.41413 25.3554
RightArm  11.1278 -5.70415 45.1986
RightForeArm  4.41946 30.9843 6.5448
RightHand  -0.5266 3.59237 -7.05989
LeftUpLeg  10.1283 5.37 -7.22874
LeftLeg  14.6614 -6.8279 -1.33389
LeftFoot  -17.0469 0.73116 12.5619
LeftToes  3.24686e-010 -7.02549e-012 1.39809e-011
510
root  -10.8644 38.5625 4.66026 17.1321 84.6371 21.4424
RightUpLeg  -18.8044 -6.14521 -6.36541
RightLeg  2.6912 8.15005 -0.756515
RightFoot  -3.89266 -0.69268 10.2463
RightToes  2.96859e-009 0 -3.6325e-017
Spine  8.30737 -2.34452 -0.469453
Spine1  4.78302 -2.14925 -1.85948
HEad  -8.16126 7.12321 -2.93385
LeftShoulder1  0.0396486 3.39013 -28.7743
LeftArm  2.07014 5.84316 -42.2996
LeftForeArm  22.6359 -35.0056 -6.52443
LeftHand  -0.0940567 1.05695 2.39626
RightShoulder  -0.591889 -5.34832 25.3508
RightArm  12.2709 -6.14728 45.5776
RightForeArm  3.69411 30.3817 6.43353
RightHand  -0.586126 3.2557 -8.10235
LeftUpLeg  12.5272 5.47282 -6.6614
LeftLeg  13.3348 -7.85104 -1.29732
LeftFoot  -18.1 0.834724 12.2375
LeftToes  3.24686e-010 -7.02549e-012 1.39809e-011
511
root  -9.45095 38.2828 5.04958 21.8557 85.2344 25.8474
RightUpLeg  -19.2991 -7.43989 -5.80691
RightLeg  -3.59702 5.5058 -0.232605
RightFoot  -5.60675 -0.622343 11.5924
RightToes  2.96859e-009 0 -3.6325e-017
Spine  7.70202 -2.37517 -0.298768
Spine1  5.02896 -2.2117 -1.31082
HEad  -9.52484 7.04916 -3.02009
LeftShoulder1  -0.0103995 3.53244 -29.3434
LeftArm  1.60426 5.66229 -41.7152
LeftForeArm  21.4985 -33.9319 -6.31282
LeftHand  -0.103774 1.08669 2.65463
RightShoulder  -0.600107 -5.35359 25.7071
RightArm  13.6629 -6.82437 45.426
RightForeArm  3.37223 29.3275 6.1903
RightHand  -0.580316 3.67569 -7.67683
LeftUpLeg  14.9342 5.8567 -5.78215
LeftLeg  12.9646 -9.16301 -1.53206
LeftFoot  -19.7064 0.985677 11.8073
LeftToes  3.24686e-010 -7.02549e-012 1.39809e-011
512
root  -7.97656 37.9293 5.48391 27.1 85.538 31.1772
RightUpLeg  -20.3564 -6.90679 -5.45543
RightLeg  -3.18442 5.24095 -0.253087
RightFoot  -6.77691 -0.511784 11.4859
RightToes  2.96859e-009 0 -3.6325e-017
Spine  8.0622 -2.28344 -0.207007
Spine1  4.92568 -2.16076 -1.00029
HEad  -11.6602 6.7709 -3.29926
LeftShoulder1  -0.0701578 3.69838 -29.9779
LeftArm  1.62199 5.53651 -41.4512
LeftForeArm  19.8546 -31.7285 -5.84867
LeftHand  -0.157635 0.964806 4.06738
RightShoulder  -0.662832 -5.53501 25.9439
RightArm  15.5773 -7.29515 45.8283
RightForeArm  2.15387 27.2258 5.75248
RightHand  -0.57939 3.6565 -7.6891
LeftUpLeg  17.4615 5.99995 -5.14426
LeftLeg  13.3837 -9.91659 -1.48996
LeftFoot  -21.2711 1.07802 10.9161
LeftToes  3.24686e-010 -7.02549e-012 1.39809e-011
513
root  -6.44004 37.6057 5.9333 31.4067 86.1655 35.6726
RightUpLeg  -21.6896 -6.48464 -4.75743
RightLeg  2.33879 4.56333 0.276272
RightFoot  -4.58603 -0.551927 9.38652
RightToes  2.96859e-009 0 -3.6325e-017
Spine  8.09557 -2.52957 -0.0523865
Spine1  5.68184 -2.58892 -0.489884
HEad  -14.2167 6.98332 -3.63855
LeftShoulder1  -0.0486953 3.63919 -29.856
LeftArm  1.6147 6.38513 -41.5305
LeftForeArm  18.2952 -29.3025 -5.35015
LeftHand  -0.148543 1.21628 3.9833
RightShoulder  -0.638037 -5.42514 26.4992
RightArm  18.3452 -7.20195 46.5188
RightForeArm  1.06631 23.8285 5.04705
RightHand  -0.527319 3.45454 -7.1159
LeftUpLeg  19.9839 5.69408 -4.07578
LeftLeg  14.1941 -10.9865 -1.6263
LeftFoot  -22.2774 1.02511 9.26864
LeftToes  3.24686e-010 -7.02549e-012 1.39809e-011
514
root  -4.85753 37.4552 6.39228 29.0284 87.6943 32.7883
RightUpLeg  -23.6144 -5.73018 -3.40152
RightLeg  8.78414 3.49403 0.533
RightFoot  1.65624 -0.611727 5.22027
RightToes  2.96859e-009 0 -3.6325e-017
Spine  7.63885 -2.87916 0.919076
Spine1  6.10545 -3.29189 1.08745
HEad  -16.0691 7.47162 -3.9392
LeftShoulder1  -0.0646401 3.68012 -30.5859
LeftArm  4.14712 7.15142 -40.9793
LeftForeArm  15.3327 -25.6779 -4.67604
LeftHand  -0.0995555 1.79022 2.9724
RightShoulder  -0.600695 -5.30641 26.5632
RightArm  19.4264 -8.43545 46.7745
RightForeArm  2.77214 20.8342 4.83244
RightHand  -0.354837 2.02441 -5.76848
LeftUpLeg  21.8578 4.0463 -2.46172
LeftLeg  14.5185 -11.506 -1.79987
LeftFoot  -21.882 0.797218 7.21354
LeftToes  3.24686e-010 -7.02549e-012 1.39809e-011
515
root  -3.14029 37.2849 6.83025 0.0633545 88.8336 3.50101
RightUpLeg  -24.9501 -4.73403 -2.07197
RightLeg  14.9591 2.64747 0.631215
RightFoot  6.40774 -0.840318 5.66957
RightToes  2.96859e-009 0 -3.6325e-017
Spine  7.88319 -3.32087 3.57612
Spine1  5.08843 -3.51352 0.836827
HEad  -17.1177 7.88875 -4.62717
LeftShoulder1  -0.139036 3.87869 -30.861
LeftArm  6.53902 8.36403 -40.7357
LeftForeArm  13.9383 -21.2768 -4.58666
LeftHand  -0.0762792 2.16958 2.36297
RightShoulder  -0.707526 -5.57825 27.4545
RightArm  18.7749 -9.43184 46.2809
RightForeArm  4.44019 16.4434 5.7105
RightHand  -0.366666 1.71917 -6.18093
LeftUpLeg  23.1784 1.14973 -0.88731
LeftLeg  16.6087 -10.6528 -2.49468
LeftFoot  -21.0368 0.436466 3.66373
LeftToes  3.24686e-010 -7.02549e-012 1.39809e-011
